<svg width="46" height="45" viewBox="0 0 46 45" fill="none" xmlns="http://www.w3.org/2000/svg">
<rect x="1.5" y="1" width="43" height="43" rx="21.5" fill="#5D6AFB"/>
<path d="M29.6371 30.272V32H16.3801V30.623L24.2371 22.928C25.2271 21.956 25.8931 21.119 26.2351 20.417C26.5951 19.697 26.7751 18.977 26.7751 18.257C26.7751 17.141 26.3881 16.277 25.6141 15.665C24.8581 15.035 23.7691 14.72 22.3471 14.72C20.1331 14.72 18.4141 15.422 17.1901 16.826L15.8131 15.638C16.5511 14.774 17.4871 14.108 18.6211 13.64C19.7731 13.172 21.0691 12.938 22.5091 12.938C24.4351 12.938 25.9561 13.397 27.0721 14.315C28.2061 15.215 28.7731 16.457 28.7731 18.041C28.7731 19.013 28.5571 19.949 28.1251 20.849C27.6931 21.749 26.8741 22.784 25.6681 23.954L19.2421 30.272H29.6371Z" fill="white"/>
<rect x="1.5" y="1" width="43" height="43" rx="21.5" stroke="#5D6AFB" stroke-width="2"/>
</svg>
