<svg width="46" height="45" viewBox="0 0 46 45" fill="none" xmlns="http://www.w3.org/2000/svg">
<rect x="1.5" y="1" width="43" height="43" rx="21.5" fill="#5D6AFB"/>
<path d="M23.2099 21.2C25.1899 21.308 26.6929 21.848 27.7189 22.82C28.7629 23.774 29.2849 25.025 29.2849 26.573C29.2849 27.653 29.0239 28.616 28.5019 29.462C27.9799 30.29 27.2059 30.947 26.1799 31.433C25.1539 31.919 23.9029 32.162 22.4269 32.162C21.0589 32.162 19.7629 31.946 18.5389 31.514C17.3329 31.064 16.3609 30.47 15.6229 29.732L16.5679 28.193C17.1979 28.841 18.0349 29.372 19.0789 29.786C20.1229 30.182 21.2389 30.38 22.4269 30.38C23.9749 30.38 25.1719 30.047 26.0179 29.381C26.8639 28.697 27.2869 27.761 27.2869 26.573C27.2869 25.403 26.8639 24.485 26.0179 23.819C25.1719 23.153 23.8939 22.82 22.1839 22.82H20.8339V21.389L26.0719 14.828H16.4059V13.1H28.5559V14.477L23.2099 21.2Z" fill="white"/>
<rect x="1.5" y="1" width="43" height="43" rx="21.5" stroke="#5D6AFB" stroke-width="2"/>
</svg>
