<svg width="46" height="45" viewBox="0 0 46 45" fill="none" xmlns="http://www.w3.org/2000/svg">
<rect x="1.5" y="1" width="43" height="43" rx="21.5" fill="#5D6AFB"/>
<path d="M21.7255 20.849C24.4615 20.849 26.4505 21.344 27.6925 22.334C28.9525 23.306 29.5825 24.674 29.5825 26.438C29.5825 27.536 29.3215 28.517 28.7995 29.381C28.2955 30.245 27.5305 30.929 26.5045 31.433C25.4785 31.919 24.2185 32.162 22.7245 32.162C21.3745 32.162 20.0875 31.946 18.8635 31.514C17.6575 31.064 16.6855 30.47 15.9475 29.732L16.8925 28.193C17.5225 28.841 18.3505 29.372 19.3765 29.786C20.4025 30.182 21.5095 30.38 22.6975 30.38C24.2635 30.38 25.4695 30.029 26.3155 29.327C27.1795 28.625 27.6115 27.689 27.6115 26.519C27.6115 25.223 27.1255 24.242 26.1535 23.576C25.1995 22.91 23.5795 22.577 21.2935 22.577H17.2705L18.2425 13.1H28.5835V14.828H19.9435L19.2955 20.849H21.7255Z" fill="white"/>
<rect x="1.5" y="1" width="43" height="43" rx="21.5" stroke="#5D6AFB" stroke-width="2"/>
</svg>
