<svg width="46" height="45" viewBox="0 0 46 45" fill="none" xmlns="http://www.w3.org/2000/svg">
<rect x="1.5" y="1" width="43" height="43" rx="21.5" fill="#5D6AFB"/>
<path d="M24.0074 20.687C25.2494 20.687 26.3474 20.921 27.3014 21.389C28.2734 21.857 29.0294 22.523 29.5694 23.387C30.1094 24.233 30.3794 25.223 30.3794 26.357C30.3794 27.509 30.1004 28.526 29.5424 29.408C28.9844 30.29 28.2104 30.974 27.2204 31.46C26.2484 31.928 25.1504 32.162 23.9264 32.162C21.4244 32.162 19.5074 31.343 18.1754 29.705C16.8434 28.049 16.1774 25.718 16.1774 22.712C16.1774 20.606 16.5374 18.824 17.2574 17.366C17.9774 15.908 18.9854 14.81 20.2814 14.072C21.5774 13.316 23.0894 12.938 24.8174 12.938C26.6894 12.938 28.1834 13.28 29.2994 13.964L28.5164 15.53C27.6164 14.936 26.3924 14.639 24.8444 14.639C22.7564 14.639 21.1184 15.305 19.9304 16.637C18.7424 17.951 18.1484 19.868 18.1484 22.388C18.1484 22.838 18.1754 23.351 18.2294 23.927C18.6974 22.901 19.4444 22.109 20.4704 21.551C21.4964 20.975 22.6754 20.687 24.0074 20.687ZM23.8454 30.515C25.2134 30.515 26.3204 30.146 27.1664 29.408C28.0304 28.652 28.4624 27.653 28.4624 26.411C28.4624 25.169 28.0304 24.179 27.1664 23.441C26.3204 22.703 25.1684 22.334 23.7104 22.334C22.7564 22.334 21.9104 22.514 21.1724 22.874C20.4524 23.234 19.8854 23.729 19.4714 24.359C19.0574 24.989 18.8504 25.691 18.8504 26.465C18.8504 27.185 19.0394 27.851 19.4174 28.463C19.8134 29.075 20.3894 29.57 21.1454 29.948C21.9014 30.326 22.8014 30.515 23.8454 30.515Z" fill="white"/>
<rect x="1.5" y="1" width="43" height="43" rx="21.5" stroke="#5D6AFB" stroke-width="2"/>
</svg>
