<svg width="30" height="36" viewBox="0 0 30 36" fill="none" xmlns="http://www.w3.org/2000/svg">
<path fill-rule="evenodd" clip-rule="evenodd" d="M30 26.6641V9.3436L15 0.68335L0 9.3436V26.6641L15 35.3244L30 26.6641ZM3.33333 11.2681L15 4.53238L26.6667 11.2681V24.7396L15 31.4754L3.33333 24.7396V11.2681ZM15 26.3334C10.3976 26.3334 6.66667 22.6024 6.66667 18C6.66667 13.3977 10.3976 9.66669 15 9.66669C19.6024 9.66669 23.3333 13.3977 23.3333 18C23.3333 22.6024 19.6024 26.3334 15 26.3334ZM20 18C20 20.7614 17.7614 23 15 23C12.2386 23 10 20.7614 10 18C10 15.2386 12.2386 13 15 13C17.7614 13 20 15.2386 20 18Z" fill="#5D6AFB"/>
</svg>
