<svg width="34" height="34" viewBox="0 0 34 34" fill="none" xmlns="http://www.w3.org/2000/svg">
<path fill-rule="evenodd" clip-rule="evenodd" d="M7.11891 3.67094C6.82291 3.6703 6.53757 3.70381 6.26642 3.7675C5.89473 2.94826 5.40376 2.21328 4.84534 1.65486C3.89755 0.707075 2.40275 0.333374 0.333496 0.333374V3.66671C1.59758 3.66671 2.32499 3.84856 2.48832 4.01189C3.11827 4.64184 3.66683 5.92181 3.66683 7.00004L3.68358 7.23574L5.3167 18.6676C2.58409 18.8093 0.467159 20.9314 0.335544 23.5841L0.333496 25.3334C0.494865 28.0733 2.60475 30.1809 5.23889 30.3307L5.61726 30.3313C6.30306 32.2744 8.15568 33.6667 10.3335 33.6667C12.5105 33.6667 14.3626 32.2754 15.049 30.3334H18.9513C19.6377 32.2754 21.4898 33.6667 23.6668 33.6667C26.4283 33.6667 28.6668 31.4281 28.6668 28.6667C28.6668 25.9053 26.4283 23.6667 23.6668 23.6667C21.4898 23.6667 19.6377 25.0581 18.9513 27H15.049C14.3626 25.0581 12.5105 23.6667 10.3335 23.6667C8.15647 23.6667 6.3044 25.0581 5.61801 27H5.3335C4.48351 26.949 3.72106 26.1874 3.66384 25.2336L3.66683 23.6667C3.71177 22.8022 4.46901 22.045 5.41609 21.998L8.70632 21.9988L8.73016 22H25.5283L25.7743 21.922C27.038 21.521 28.0496 20.5694 28.5285 19.3376L28.7041 18.9901L28.709 18.9804L28.7138 18.9708L28.7194 18.9598C28.9403 18.5223 28.9476 18.508 29.2746 17.8598C29.8648 16.6899 30.455 15.518 31.0301 14.373C32.4389 11.5685 33.3248 9.78614 33.521 9.34847C34.5286 7.10079 32.4875 5.37081 30.4013 5.33397L7.11891 3.67094ZM24.9492 18.6667H8.85495C8.74793 18.637 8.66638 18.5463 8.65042 18.4334L7.01726 7.00126L30.1558 8.65825C29.7509 9.48391 29.015 10.9586 28.0514 12.8769L28.0273 12.9249C27.4773 14.0198 26.8879 15.1901 26.2985 16.3585L25.9406 17.0677L25.7287 17.4873L25.5128 17.9148L25.4315 18.1037C25.3444 18.3463 25.1715 18.5456 24.9492 18.6667ZM23.6668 30.3334C24.5873 30.3334 25.3335 29.5872 25.3335 28.6667C25.3335 27.7462 24.5873 27 23.6668 27C22.7464 27 22.0002 27.7462 22.0002 28.6667C22.0002 29.5872 22.7464 30.3334 23.6668 30.3334ZM12.0002 28.6667C12.0002 29.5872 11.254 30.3334 10.3335 30.3334C9.41302 30.3334 8.66683 29.5872 8.66683 28.6667C8.66683 27.7462 9.41302 27 10.3335 27C11.254 27 12.0002 27.7462 12.0002 28.6667Z" fill="#5D6AFB"/>
</svg>
