<svg width="34" height="34" viewBox="0 0 34 34" fill="none" xmlns="http://www.w3.org/2000/svg">
<path fill-rule="evenodd" clip-rule="evenodd" d="M6.1619 8.66671C5.61489 7.77233 5.3335 6.67147 5.3335 5.33337C5.3335 2.69518 7.31742 0.333374 10.3335 0.333374C13.3535 0.333374 15.7889 2.35609 17.0002 5.52309C18.2114 2.35609 20.6468 0.333374 23.6668 0.333374C26.6829 0.333374 28.6668 2.69518 28.6668 5.33337C28.6668 6.67147 28.3854 7.77233 27.8384 8.66671H30.3335C32.1744 8.66671 33.6668 10.1591 33.6668 12V15.3334C33.6668 17.1743 32.1744 18.6667 30.3335 18.6667V30.3334C30.3335 32.1743 28.8411 33.6667 27.0002 33.6667H7.00016C5.15921 33.6667 3.66683 32.1743 3.66683 30.3334V18.6667C1.82588 18.6667 0.333496 17.1743 0.333496 15.3334V12C0.333496 10.1591 1.82588 8.66671 3.66683 8.66671H6.1619ZM15.3335 12H3.66683V15.3334H15.3335V12ZM30.3335 15.3334H18.6668V12H30.3335V15.3334ZM15.3335 30.3334V18.6667H7.00016V30.3334H15.3335ZM27.0002 30.3334H18.6668V18.6667H27.0002V30.3334ZM10.3335 3.66671C9.29957 3.66671 8.66683 4.41998 8.66683 5.33337C8.66683 7.42209 10.3618 8.41524 14.3825 8.62419C13.9357 5.51937 12.2705 3.66671 10.3335 3.66671ZM19.5002 8.62419C19.947 5.51937 21.6122 3.66671 23.5492 3.66671C24.5831 3.66671 25.2159 4.41998 25.2159 5.33337C25.2159 7.42209 23.5209 8.41524 19.5002 8.62419Z" fill="#5D6AFB"/>
</svg>
